# xmcd
#
# Track frame offsets: 
#        150
#        21987
#        48230
#        66880
#        87030
#        101942
#        122472
#        139095
#        159460
#        178047
#
# Disc length: 2755 seconds
#
# Revision: 3
# Processed by: cddbd v1.5.2PL0 Copyright (c) Steve Scherf et al.
# Submitted via: ExactAudioCopy v0.99pb4
#
DISCID=810ac10a
DTITLE=Various Artist - Slow Jams of The 70's - Vol3
DYEAR=1994
DGENRE=
TTITLE0=Barry White - Never Never Gonna Give You Up
TTITLE1=Teddy Pendergrass - Come Go With Me
TTITLE2=Sylvia - Pillow Talk
TTITLE3=The Manhattans - Kiss and Say Goodbye
TTITLE4=The Stylistics - Betcha By Golly, Wow
TTITLE5=Peabo Bryson - Feel The Fire
TTITLE6=Tower of Power - So Very Hard To Go
TTITLE7=Earth, Wind and Fire - After The Love Has Gone
TTITLE8=The Spinners - Just As Long As We Have Love
TTITLE9=The O'Jays - Desire Me
EXTD=
EXTT0=
EXTT1=
EXTT2=
EXTT3=
EXTT4=
EXTT5=
EXTT6=
EXTT7=
EXTT8=
EXTT9=
PLAYORDER=
